<svg width="22" height="16" viewBox="0 0 22 16" fill="none" xmlns="http://www.w3.org/2000/svg">
<path fill-rule="evenodd" clip-rule="evenodd" d="M1 11.25H5.5C5.914 11.25 6.25 10.914 6.25 10.5C6.25 10.086 5.914 9.75 5.5 9.75H1C0.586 9.75 0.25 10.086 0.25 10.5C0.25 10.914 0.586 11.25 1 11.25Z" fill="#2A5082"/>
<path fill-rule="evenodd" clip-rule="evenodd" d="M3 8.25H5.5C5.914 8.25 6.25 7.914 6.25 7.5C6.25 7.086 5.914 6.75 5.5 6.75H3C2.586 6.75 2.25 7.086 2.25 7.5C2.25 7.914 2.586 8.25 3 8.25Z" fill="#2A5082"/>
<path fill-rule="evenodd" clip-rule="evenodd" d="M3.25 5.75H5.5C6.466 5.75 7.25 6.534 7.25 7.5C7.25 8.136 6.91 8.694 6.401 9C6.91 9.306 7.25 9.864 7.25 10.5C7.25 11.466 6.466 12.25 5.5 12.25H3.25V12.5C3.25 13.229 3.54 13.929 4.055 14.445C4.571 14.96 5.271 15.25 6 15.25C9.271 15.25 15.729 15.25 19 15.25C19.729 15.25 20.429 14.96 20.945 14.445C21.46 13.929 21.75 13.229 21.75 12.5C21.75 10.056 21.75 5.944 21.75 3.5C21.75 3.372 21.741 3.245 21.724 3.12L13.957 7.974C13.066 8.531 11.934 8.531 11.043 7.974L3.276 3.12C3.259 3.245 3.25 3.372 3.25 3.5V5.75ZM3.891 1.735L11.838 6.702C12.243 6.955 12.757 6.955 13.163 6.701L21.109 1.735C21.057 1.673 21.002 1.613 20.945 1.555C20.429 1.04 19.729 0.75 19 0.75C15.729 0.75 9.271 0.75 6 0.75C5.271 0.75 4.571 1.04 4.055 1.555C3.998 1.613 3.943 1.673 3.891 1.735Z" fill="#2A5082"/>
</svg>
