<svg width="22" height="22" viewBox="0 0 22 22" fill="none" xmlns="http://www.w3.org/2000/svg">
<path fill-rule="evenodd" clip-rule="evenodd" d="M10 21.5V14H8.25C7.836 14 7.5 13.664 7.5 13.25V10.75C7.5 10.336 7.836 10 8.25 10H10V7.25C10 5.179 11.679 3.5 13.75 3.5H17.25C17.664 3.5 18 3.836 18 4.25V6.75C18 7.164 17.664 7.5 17.25 7.5H14.25C14.112 7.5 14 7.612 14 7.75V10H17.25C17.475 10 17.688 10.101 17.83 10.275C17.972 10.448 18.03 10.677 17.985 10.897L17.485 13.397C17.415 13.748 17.108 14 16.75 14H14V21.5H16.25C19.426 21.5 22 18.926 22 15.75V5.75C22 2.574 19.426 0 16.25 0H6.25C3.074 0 0.5 2.574 0.5 5.75V15.75C0.5 18.926 3.074 21.5 6.25 21.5H10Z" fill="#4B545F"/>
</svg>
