<svg width="14" height="10" viewBox="0 0 14 10" fill="none" xmlns="http://www.w3.org/2000/svg">
<path d="M13.0273 1.94531H0.972654C0.71469 1.94531 0.467292 1.84283 0.284884 1.66042C0.102476 1.47802 0 1.23062 0 0.972654C0 0.71469 0.102476 0.467292 0.284884 0.284884C0.467292 0.102476 0.71469 0 0.972654 0H13.0273C13.2853 0 13.5327 0.102476 13.7151 0.284884C13.8975 0.467292 14 0.71469 14 0.972654C14 1.23062 13.8975 1.47802 13.7151 1.66042C13.5327 1.84283 13.2853 1.94531 13.0273 1.94531Z" fill="#A9A9A9"/>
<path d="M11.082 5.83593H2.91797C2.66 5.83593 2.4126 5.73346 2.2302 5.55105C2.04779 5.36864 1.94531 5.12124 1.94531 4.86328C1.94531 4.60532 2.04779 4.35792 2.2302 4.17551C2.4126 3.9931 2.66 3.89062 2.91797 3.89062H11.082C11.34 3.89063 11.5874 3.9931 11.7698 4.17551C11.9522 4.35792 12.0547 4.60532 12.0547 4.86328C12.0547 5.12124 11.9522 5.36864 11.7698 5.55105C11.5874 5.73346 11.34 5.83593 11.082 5.83593Z" fill="#A9A9A9"/>
<path d="M9.13673 9.72656H4.86328C4.60532 9.72656 4.35792 9.62408 4.17551 9.44168C3.9931 9.25927 3.89062 9.01187 3.89062 8.7539C3.89062 8.49594 3.9931 8.24854 4.17551 8.06613C4.35792 7.88373 4.60532 7.78125 4.86328 7.78125H9.13673C9.3947 7.78125 9.6421 7.88373 9.82451 8.06613C10.0069 8.24854 10.1094 8.49594 10.1094 8.7539C10.1094 9.01187 10.0069 9.25927 9.82451 9.44168C9.6421 9.62408 9.3947 9.72656 9.13673 9.72656Z" fill="#A9A9A9"/>
</svg>
