<svg width="19" height="19" viewBox="0 0 19 19" fill="none" xmlns="http://www.w3.org/2000/svg">
<path d="M16.0448 1.9837H12.6896V0.543701H17.78C17.971 0.543701 18.1541 0.619558 18.2891 0.754584C18.4241 0.88961 18.5 1.07275 18.5 1.2637V6.3541H17.06V2.9989L9.6512 10.4149L8.6288 9.3925L16.0448 1.9837ZM1.22 18.5437H17.06C17.251 18.5437 17.4341 18.4678 17.5691 18.3328C17.7041 18.1978 17.78 18.0147 17.78 17.8237V8.4637H16.34V17.1037H1.94V2.7037H10.58V1.2637H1.22C1.02904 1.2637 0.845909 1.33956 0.710883 1.47458C0.575857 1.60961 0.5 1.79275 0.5 1.9837V17.8237C0.5 18.0147 0.575857 18.1978 0.710883 18.3328C0.845909 18.4678 1.02904 18.5437 1.22 18.5437Z" fill="#4B545F"/>
</svg>
