<svg width="22" height="22" viewBox="0 0 22 22" fill="none" xmlns="http://www.w3.org/2000/svg">
<path fill-rule="evenodd" clip-rule="evenodd" d="M21.5 3.75C21.5 1.679 19.821 0 17.75 0H3.75C1.679 0 0 1.679 0 3.75V17.75C0 19.821 1.679 21.5 3.75 21.5H17.75C19.821 21.5 21.5 19.821 21.5 17.75V3.75ZM7.95 9.25H5.07V17.25H7.95V9.25ZM11.95 10.21V9.25H9.07V17.25H11.95V13.09C11.95 12.835 12.051 12.591 12.231 12.411C12.411 12.231 12.655 12.13 12.91 12.13C13.165 12.13 13.409 12.231 13.589 12.411C13.769 12.591 13.87 12.835 13.87 13.09C13.87 14.573 13.87 17.25 13.87 17.25H16.75V12.022C16.75 10.491 15.509 9.25 13.978 9.25C13.493 9.25 13.02 9.407 12.632 9.698C12.299 9.948 11.95 10.21 11.95 10.21ZM6.35 5.25C7.233 5.25 7.95 5.967 7.95 6.85C7.95 7.733 7.233 8.45 6.35 8.45C5.467 8.45 4.75 7.733 4.75 6.85C4.75 5.967 5.467 5.25 6.35 5.25Z" fill="#4B545F"/>
</svg>
