<svg width="267" height="73" viewBox="0 0 267 73" fill="none" xmlns="http://www.w3.org/2000/svg">
<path d="M13.0902 34.6863C16.3142 34.6863 18.4636 31.9996 18.4636 28.7756V26.7606C18.4636 23.5365 16.3142 20.8499 13.0902 20.8499C9.86615 20.8499 7.7168 23.5365 7.7168 26.7606V28.7756C7.7168 32.134 9.86615 34.6863 13.0902 34.6863Z" fill="white" stroke="#2A5082" stroke-width="2" stroke-miterlimit="10"/>
<path d="M10.4034 38.7166C4.0897 38.7166 1 40.7316 1 46.7766V52.15H21.1502V45.4333H29.2103C33.2403 45.4333 35.927 41.6719 35.927 38.7166C33.7777 38.7166 12.8215 38.7166 10.4034 38.7166Z" fill="#A3D4FF"/>
<path d="M21.1502 52.15V45.4333H29.2103C33.2403 45.4333 35.927 41.6719 35.927 38.7166C33.7777 38.7166 12.8215 38.7166 10.4034 38.7166C4.0897 38.7166 1 40.7316 1 46.7766V52.15" stroke="#2A5082" stroke-width="2" stroke-miterlimit="10"/>
<path d="M64.659 46.448C62.7177 46.448 60.9443 45.9907 59.339 45.076C57.7337 44.1427 56.4643 42.8827 55.531 41.296C54.6163 39.6907 54.159 37.9173 54.159 35.976C54.159 34.0347 54.6163 32.2707 55.531 30.684C56.4643 29.0787 57.7337 27.8187 59.339 26.904C60.9443 25.9707 62.7177 25.504 64.659 25.504C67.683 25.504 70.1843 26.596 72.163 28.78L69.503 31.356C68.1777 29.844 66.5723 29.088 64.687 29.088C63.4363 29.088 62.2977 29.3773 61.271 29.956C60.2443 30.516 59.4323 31.3187 58.835 32.364C58.2377 33.4093 57.939 34.6133 57.939 35.976C57.939 37.3387 58.2377 38.5427 58.835 39.588C59.4323 40.6333 60.2443 41.4453 61.271 42.024C62.2977 42.584 63.4363 42.864 64.687 42.864C66.7777 42.864 68.5323 41.9867 69.951 40.232L72.667 42.78C71.659 43.9747 70.483 44.8893 69.139 45.524C67.795 46.14 66.3017 46.448 64.659 46.448ZM75.2802 25.952H78.9482V46H75.2802V25.952ZM88.8322 46.448C87.4322 46.448 86.1722 46.1307 85.0522 45.496C83.9509 44.8613 83.0829 43.984 82.4482 42.864C81.8135 41.7253 81.4962 40.456 81.4962 39.056C81.4962 37.7307 81.8042 36.508 82.4202 35.388C83.0549 34.2493 83.9135 33.344 84.9962 32.672C86.0975 32 87.3295 31.664 88.6922 31.664C90.1482 31.664 91.3895 31.9813 92.4162 32.616C93.4615 33.232 94.2549 34.0813 94.7962 35.164C95.3375 36.2467 95.6082 37.4787 95.6082 38.86C95.6082 39.1027 95.5989 39.3267 95.5802 39.532C95.5615 39.756 95.5522 39.8773 95.5522 39.896H85.1082C85.2575 40.96 85.6869 41.7813 86.3962 42.36C87.1242 42.92 87.9549 43.2 88.8882 43.2C90.4189 43.2 91.5762 42.528 92.3602 41.184L95.3842 42.668C94.7122 43.8627 93.8255 44.796 92.7242 45.468C91.6229 46.1213 90.3255 46.448 88.8322 46.448ZM92.0802 37.292C92.0429 36.9 91.8842 36.4987 91.6042 36.088C91.3429 35.6773 90.9602 35.3413 90.4562 35.08C89.9709 34.8 89.3829 34.66 88.6922 34.66C87.8895 34.66 87.1802 34.9027 86.5642 35.388C85.9482 35.8547 85.5189 36.4893 85.2762 37.292H92.0802ZM102.752 46.448C101.8 46.448 100.932 46.252 100.148 45.86C99.3643 45.4493 98.7483 44.8893 98.3003 44.18C97.8523 43.452 97.6283 42.6307 97.6283 41.716C97.6283 40.7827 97.871 39.9613 98.3563 39.252C98.8603 38.524 99.5417 37.9733 100.4 37.6C101.259 37.208 102.22 37.012 103.284 37.012C104.722 37.012 105.944 37.2267 106.952 37.656V37.18C106.952 36.4333 106.663 35.8267 106.084 35.36C105.506 34.8747 104.768 34.632 103.872 34.632C102.51 34.632 101.408 35.1733 100.568 36.256L97.9923 34.408C98.683 33.512 99.5417 32.8307 100.568 32.364C101.595 31.8973 102.724 31.664 103.956 31.664C106.103 31.664 107.736 32.168 108.856 33.176C109.995 34.184 110.564 35.6587 110.564 37.6V46H106.952V44.544H106.728C105.702 45.8133 104.376 46.448 102.752 46.448ZM103.592 43.592C104.246 43.592 104.824 43.4427 105.328 43.144C105.851 42.8267 106.252 42.4253 106.532 41.94C106.812 41.436 106.952 40.904 106.952 40.344C106.038 39.9147 105.076 39.7 104.068 39.7C103.172 39.7 102.491 39.8867 102.024 40.26C101.558 40.6333 101.324 41.1187 101.324 41.716C101.324 42.276 101.539 42.7333 101.968 43.088C102.398 43.424 102.939 43.592 103.592 43.592ZM113.808 32.112H117.252V34.016H117.476C117.812 33.344 118.344 32.7933 119.072 32.364C119.818 31.916 120.612 31.692 121.452 31.692C122.086 31.692 122.665 31.7947 123.188 32V35.668C122.385 35.332 121.61 35.164 120.864 35.164C119.837 35.164 119.016 35.5467 118.4 36.312C117.784 37.0587 117.476 38.0107 117.476 39.168V46H113.808V32.112ZM125.987 25.952H133.827C134.947 25.952 135.973 26.1853 136.907 26.652C137.859 27.1187 138.605 27.7533 139.147 28.556C139.688 29.3587 139.959 30.236 139.959 31.188C139.959 32.196 139.707 33.0733 139.203 33.82C138.717 34.548 138.073 35.108 137.271 35.5V35.724C138.316 36.0973 139.147 36.6947 139.763 37.516C140.379 38.3187 140.687 39.2893 140.687 40.428C140.687 41.5293 140.388 42.5093 139.791 43.368C139.212 44.208 138.419 44.8613 137.411 45.328C136.421 45.776 135.32 46 134.107 46H125.987V25.952ZM133.547 34.128C134.387 34.128 135.049 33.904 135.535 33.456C136.02 32.9893 136.263 32.4107 136.263 31.72C136.263 31.048 136.02 30.488 135.535 30.04C135.068 29.5733 134.443 29.34 133.659 29.34H129.767V34.128H133.547ZM133.967 42.556C134.881 42.556 135.591 42.3227 136.095 41.856C136.617 41.3707 136.879 40.7453 136.879 39.98C136.879 39.2147 136.617 38.5893 136.095 38.104C135.572 37.6187 134.825 37.376 133.855 37.376H129.767V42.556H133.967ZM145.52 30.264C144.866 30.264 144.306 30.0307 143.84 29.564C143.392 29.0973 143.168 28.5373 143.168 27.884C143.168 27.2307 143.401 26.68 143.868 26.232C144.334 25.7653 144.885 25.532 145.52 25.532C146.173 25.532 146.733 25.7653 147.2 26.232C147.666 26.68 147.9 27.2307 147.9 27.884C147.9 28.5373 147.666 29.0973 147.2 29.564C146.733 30.0307 146.173 30.264 145.52 30.264ZM143.7 32.112H147.368V46H143.7V32.112ZM157.016 46.224C156.326 46.224 155.7 46.1213 155.14 45.916C154.58 45.7107 154.104 45.412 153.712 45.02C152.835 44.18 152.396 42.9853 152.396 41.436V35.248H149.96V32.112H152.396V27.968H156.064V32.112H159.48V35.248H156.064V40.764C156.064 41.492 156.223 42.0147 156.54 42.332C156.802 42.6307 157.231 42.78 157.828 42.78C158.146 42.78 158.426 42.7427 158.668 42.668C158.93 42.5747 159.219 42.4347 159.536 42.248V45.776C158.752 46.0747 157.912 46.224 157.016 46.224ZM175.178 46.448C173.517 46.448 172.023 45.9627 170.698 44.992C169.373 44.0213 168.458 42.6587 167.954 40.904L170.922 39.7C171.221 40.8013 171.743 41.7067 172.49 42.416C173.255 43.1067 174.17 43.452 175.234 43.452C176.223 43.452 177.063 43.2 177.754 42.696C178.445 42.1733 178.79 41.464 178.79 40.568C178.79 39.7467 178.482 39.0747 177.866 38.552C177.269 38.0107 176.214 37.4693 174.702 36.928L173.442 36.48C172.098 36.0133 170.969 35.3413 170.054 34.464C169.139 33.5867 168.682 32.4293 168.682 30.992C168.682 30.0027 168.953 29.088 169.494 28.248C170.035 27.408 170.782 26.7453 171.734 26.26C172.705 25.756 173.797 25.504 175.01 25.504C176.765 25.504 178.165 25.9333 179.21 26.792C180.255 27.632 180.955 28.584 181.31 29.648L178.482 30.852C178.277 30.2173 177.885 29.6573 177.306 29.172C176.727 28.6867 175.981 28.444 175.066 28.444C174.151 28.444 173.377 28.6773 172.742 29.144C172.126 29.6107 171.818 30.208 171.818 30.936C171.818 31.6267 172.098 32.196 172.658 32.644C173.218 33.092 174.095 33.5213 175.29 33.932L176.55 34.352C178.267 34.9493 179.593 35.7333 180.526 36.704C181.478 37.656 181.954 38.9347 181.954 40.54C181.954 41.8467 181.618 42.948 180.946 43.844C180.274 44.7213 179.415 45.3747 178.37 45.804C177.343 46.2333 176.279 46.448 175.178 46.448ZM189.93 46.224C189.314 46.224 188.735 46.1307 188.194 45.944C187.671 45.7387 187.232 45.4587 186.878 45.104C186.075 44.32 185.674 43.228 185.674 41.828V34.828H183.238V32.112H185.674V27.968H188.754V32.112H192.142V34.828H188.754V41.156C188.754 41.9213 188.903 42.4627 189.202 42.78C189.482 43.1533 189.939 43.34 190.574 43.34C191.115 43.34 191.647 43.1813 192.17 42.864V45.86C191.516 46.1027 190.77 46.224 189.93 46.224ZM199.114 46.448C198.125 46.448 197.229 46.252 196.426 45.86C195.642 45.4493 195.017 44.8893 194.55 44.18C194.102 43.452 193.878 42.6307 193.878 41.716C193.878 40.26 194.42 39.112 195.502 38.272C196.604 37.432 197.994 37.012 199.674 37.012C201.149 37.012 202.409 37.264 203.454 37.768V37.18C203.454 36.34 203.118 35.6493 202.446 35.108C201.793 34.548 201 34.268 200.066 34.268C198.648 34.268 197.509 34.8467 196.65 36.004L194.298 34.38C194.952 33.5027 195.764 32.8307 196.734 32.364C197.724 31.8973 198.834 31.664 200.066 31.664C202.101 31.664 203.669 32.1773 204.77 33.204C205.89 34.212 206.45 35.64 206.45 37.488V46H203.454V44.292H203.286C202.838 44.9267 202.269 45.4493 201.578 45.86C200.888 46.252 200.066 46.448 199.114 46.448ZM199.618 43.9C200.309 43.9 200.944 43.732 201.522 43.396C202.12 43.0413 202.586 42.584 202.922 42.024C203.277 41.4453 203.454 40.8293 203.454 40.176C202.465 39.6347 201.41 39.364 200.29 39.364C199.264 39.364 198.461 39.588 197.882 40.036C197.304 40.484 197.014 41.0533 197.014 41.744C197.014 42.3787 197.266 42.9013 197.77 43.312C198.293 43.704 198.909 43.9 199.618 43.9ZM230.653 29.788C230.074 29.788 229.579 29.592 229.169 29.2C228.777 28.7893 228.581 28.304 228.581 27.744C228.581 27.1653 228.777 26.68 229.169 26.288C229.579 25.8773 230.074 25.672 230.653 25.672C231.231 25.672 231.717 25.8773 232.109 26.288C232.519 26.68 232.725 27.1653 232.725 27.744C232.725 28.304 232.519 28.7893 232.109 29.2C231.717 29.592 231.231 29.788 230.653 29.788ZM210.997 34.828H208.449V32.112H210.997V30.6C210.997 29.1067 211.454 27.9213 212.369 27.044C213.302 26.1667 214.487 25.728 215.925 25.728C216.559 25.728 217.147 25.812 217.689 25.98V28.948C217.129 28.724 216.587 28.612 216.065 28.612C215.486 28.612 215.01 28.808 214.637 29.2C214.263 29.592 214.077 30.1333 214.077 30.824V32.112H220.069V30.6C220.069 29.1067 220.526 27.9213 221.441 27.044C222.355 26.1667 223.541 25.728 224.997 25.728C225.631 25.728 226.219 25.812 226.761 25.98V28.948C226.163 28.724 225.622 28.612 225.137 28.612C224.558 28.612 224.082 28.808 223.709 29.2C223.335 29.592 223.149 30.1333 223.149 30.824V32.112H232.193V46H229.113V34.828H223.149V46H220.069V34.828H214.077V46H210.997V34.828ZM235.897 32.112H238.809V33.96H238.977C239.388 33.288 239.985 32.7373 240.769 32.308C241.553 31.8787 242.403 31.664 243.317 31.664C245.035 31.664 246.332 32.168 247.209 33.176C248.105 34.184 248.553 35.5747 248.553 37.348V46H245.473V37.768C245.473 35.584 244.456 34.492 242.421 34.492C241.395 34.492 240.564 34.9027 239.929 35.724C239.295 36.5453 238.977 37.516 238.977 38.636V46H235.897V32.112ZM258.056 52.496C256.32 52.496 254.883 52.0853 253.744 51.264C252.624 50.4613 251.868 49.5187 251.476 48.436L254.388 47.232C254.668 47.9973 255.135 48.604 255.788 49.052C256.441 49.5 257.197 49.724 258.056 49.724C259.344 49.724 260.352 49.332 261.08 48.548C261.827 47.764 262.2 46.6813 262.2 45.3V44.096H262.032C261.584 44.7493 260.968 45.272 260.184 45.664C259.419 46.056 258.541 46.252 257.552 46.252C256.395 46.252 255.312 45.944 254.304 45.328C253.315 44.712 252.512 43.8533 251.896 42.752C251.299 41.632 251 40.372 251 38.972C251 37.572 251.299 36.3213 251.896 35.22C252.512 34.1 253.315 33.232 254.304 32.616C255.312 31.9813 256.395 31.664 257.552 31.664C258.541 31.664 259.419 31.86 260.184 32.252C260.968 32.644 261.584 33.1667 262.032 33.82H262.2V32.112H265.14V45.216C265.14 46.7467 264.832 48.0627 264.216 49.164C263.619 50.2653 262.779 51.096 261.696 51.656C260.632 52.216 259.419 52.496 258.056 52.496ZM258.14 43.452C258.868 43.452 259.54 43.2747 260.156 42.92C260.772 42.5653 261.267 42.052 261.64 41.38C262.013 40.6893 262.2 39.8867 262.2 38.972C262.2 38.0387 262.013 37.236 261.64 36.564C261.267 35.8733 260.772 35.3507 260.156 34.996C259.54 34.6413 258.868 34.464 258.14 34.464C257.412 34.464 256.74 34.6507 256.124 35.024C255.508 35.3787 255.013 35.9013 254.64 36.592C254.267 37.264 254.08 38.0573 254.08 38.972C254.08 39.8867 254.267 40.6893 254.64 41.38C255.013 42.052 255.508 42.5653 256.124 42.92C256.74 43.2747 257.412 43.452 258.14 43.452Z" fill="black"/>
</svg>
