<svg width="22" height="22" viewBox="0 0 22 22" fill="none" xmlns="http://www.w3.org/2000/svg">
<path d="M9.7868 2.59761V1M1 9.78686H2.5976M14.8703 4.70319L16 3.57351M3.57359 16L4.70327 14.8703M3.57359 3.57351L4.70327 4.70319" stroke="#2A5082" stroke-width="1.5" stroke-linecap="round" stroke-linejoin="round"/>
<path d="M16.5464 20.2523C16.2685 20.0427 15.7005 20.1189 15.3631 20.3042C10.1061 23.192 8.25955 16.24 7.83029 10.3009C7.78868 9.72516 7.88231 9.11762 8.49997 8.49996C9.11763 7.8823 9.69999 7.79811 10.301 7.83032C16.3913 8.15671 23.1517 10.2166 20.3043 15.3631C20.1216 15.6933 20.0294 16.2834 20.2523 16.5464C21.2736 17.7513 21.1483 18.4935 19.8206 19.8066C18.4957 21.1168 17.8102 21.2054 16.5464 20.2523Z" stroke="#2A5082" stroke-width="1.5" stroke-linecap="round" stroke-linejoin="round"/>
</svg>
