<svg width="14" height="14" viewBox="0 0 14 14" fill="none" xmlns="http://www.w3.org/2000/svg">
<mask id="mask0_505_2820" style="mask-type:luminance" maskUnits="userSpaceOnUse" x="0" y="0" width="14" height="14">
<path d="M7 14C10.866 14 14 10.866 14 7C14 3.13401 10.866 0 7 0C3.13401 0 0 3.13401 0 7C0 10.866 3.13401 14 7 14Z" fill="white"/>
</mask>
<g mask="url(#mask0_505_2820)">
<path d="M0 3.5L7 2.625L14 3.5V10.5L7 11.375L0 10.5V3.5Z" fill="#FFDA44"/>
<path d="M0 0H14V3.5H0V0ZM0 10.5H14V14H0V10.5Z" fill="#D80027"/>
<path d="M3.9375 8.3125H3.5V6.125H3.9375V8.3125ZM7.4375 8.3125H7.875V6.125H7.4375V8.3125Z" fill="#EEEEEE"/>
<path d="M5.6875 8.96875C6.41237 8.96875 7 8.577 7 8.09375C7 7.6105 6.41237 7.21875 5.6875 7.21875C4.96263 7.21875 4.375 7.6105 4.375 8.09375C4.375 8.577 4.96263 8.96875 5.6875 8.96875Z" fill="#EEEEEE"/>
<path d="M3.9375 5.46875C3.9375 5.34794 3.83956 5.25 3.71875 5.25C3.59794 5.25 3.5 5.34794 3.5 5.46875V5.6875C3.5 5.80831 3.59794 5.90625 3.71875 5.90625C3.83956 5.90625 3.9375 5.80831 3.9375 5.6875V5.46875Z" fill="#D80027"/>
<path d="M7.875 5.46875C7.875 5.34794 7.77706 5.25 7.65625 5.25C7.53544 5.25 7.4375 5.34794 7.4375 5.46875V5.6875C7.4375 5.80831 7.53544 5.90625 7.65625 5.90625C7.77706 5.90625 7.875 5.80831 7.875 5.6875V5.46875Z" fill="#D80027"/>
<path d="M5.6875 7.4375V8.09375C5.6875 8.2678 5.75664 8.43472 5.87971 8.55779C6.00278 8.68086 6.1697 8.75 6.34375 8.75C6.5178 8.75 6.68472 8.68086 6.80779 8.55779C6.93086 8.43472 7 8.2678 7 8.09375V7.4375H6.34375H5.6875Z" fill="#D80027"/>
<path d="M3.9375 5.6875H3.5C3.37919 5.6875 3.28125 5.78544 3.28125 5.90625C3.28125 6.02706 3.37919 6.125 3.5 6.125H3.9375C4.05831 6.125 4.15625 6.02706 4.15625 5.90625C4.15625 5.78544 4.05831 5.6875 3.9375 5.6875Z" fill="#FF9811"/>
<path d="M7.875 5.6875H7.4375C7.31669 5.6875 7.21875 5.78544 7.21875 5.90625C7.21875 6.02706 7.31669 6.125 7.4375 6.125H7.875C7.99581 6.125 8.09375 6.02706 8.09375 5.90625C8.09375 5.78544 7.99581 5.6875 7.875 5.6875Z" fill="#FF9811"/>
<path d="M3.9375 8.3125H3.5C3.37919 8.3125 3.28125 8.41044 3.28125 8.53125C3.28125 8.65206 3.37919 8.75 3.5 8.75H3.9375C4.05831 8.75 4.15625 8.65206 4.15625 8.53125C4.15625 8.41044 4.05831 8.3125 3.9375 8.3125Z" fill="#FF9811"/>
<path d="M7.875 8.3125H7.4375C7.31669 8.3125 7.21875 8.41044 7.21875 8.53125C7.21875 8.65206 7.31669 8.75 7.4375 8.75H7.875C7.99581 8.75 8.09375 8.65206 8.09375 8.53125C8.09375 8.41044 7.99581 8.3125 7.875 8.3125Z" fill="#FF9811"/>
<path d="M4.375 7.4375V8.09375C4.375 8.3125 4.48438 8.47656 4.62109 8.61328L4.75781 8.44922L4.89453 8.72266C4.98435 8.74467 5.07815 8.74467 5.16797 8.72266L5.30469 8.44922L5.44141 8.61328C5.60547 8.47656 5.6875 8.3125 5.6875 8.09375V7.4375H5.44141L5.30469 7.65625L5.16797 7.4375H4.89453L4.75781 7.65625L4.62109 7.4375H4.375Z" fill="#FF9811"/>
<path d="M3.33594 6.89062H8.03906H3.33594ZM3.33594 7.54688H4.10156H3.33594ZM7.27344 7.54688H8.03906H7.27344Z" fill="black"/>
<path d="M3.33594 6.78125C3.30693 6.78125 3.27911 6.79277 3.2586 6.81329C3.23809 6.8338 3.22656 6.86162 3.22656 6.89062C3.22656 6.91963 3.23809 6.94745 3.2586 6.96796C3.27911 6.98848 3.30693 7 3.33594 7H8.03906C8.06807 7 8.09589 6.98848 8.1164 6.96796C8.13691 6.94745 8.14844 6.91963 8.14844 6.89062C8.14844 6.86162 8.13691 6.8338 8.1164 6.81329C8.09589 6.79277 8.06807 6.78125 8.03906 6.78125H3.33594ZM3.33594 7.4375C3.30693 7.4375 3.27911 7.44902 3.2586 7.46954C3.23809 7.49005 3.22656 7.51787 3.22656 7.54688C3.22656 7.57588 3.23809 7.6037 3.2586 7.62421C3.27911 7.64473 3.30693 7.65625 3.33594 7.65625H4.10156C4.13057 7.65625 4.15839 7.64473 4.1789 7.62421C4.19941 7.6037 4.21094 7.57588 4.21094 7.54688C4.21094 7.51787 4.19941 7.49005 4.1789 7.46954C4.15839 7.44902 4.13057 7.4375 4.10156 7.4375H3.33594ZM7.27344 7.4375C7.24443 7.4375 7.21661 7.44902 7.1961 7.46954C7.17559 7.49005 7.16406 7.51787 7.16406 7.54688C7.16406 7.57588 7.17559 7.6037 7.1961 7.62421C7.21661 7.64473 7.24443 7.65625 7.27344 7.65625H8.03906C8.06807 7.65625 8.09589 7.64473 8.1164 7.62421C8.13691 7.6037 8.14844 7.57588 8.14844 7.54688C8.14844 7.51787 8.13691 7.49005 8.1164 7.46954C8.09589 7.44902 8.06807 7.4375 8.03906 7.4375H7.27344Z" fill="#D80027"/>
<path d="M5.35938 4.59375C5.16797 4.59375 5.00391 4.73047 4.94922 4.89453L4.8125 4.86719C4.56641 4.86719 4.375 5.05859 4.375 5.30469C4.375 5.55078 4.56641 5.74219 4.8125 5.74219C5.00391 5.74219 5.16797 5.63281 5.22266 5.44141C5.3024 5.47017 5.38879 5.47515 5.47132 5.45573C5.55384 5.43632 5.62895 5.39334 5.6875 5.33203C5.74605 5.39334 5.82116 5.43632 5.90368 5.45573C5.98621 5.47515 6.0726 5.47017 6.15234 5.44141C6.17888 5.52423 6.22949 5.59726 6.29772 5.65118C6.36595 5.7051 6.44871 5.73747 6.53541 5.74414C6.62212 5.75081 6.70886 5.73149 6.78453 5.68865C6.86021 5.6458 6.92141 5.58137 6.9603 5.50359C6.99919 5.4258 7.01402 5.33819 7.00289 5.25194C6.99176 5.16569 6.95518 5.08471 6.89781 5.01935C6.84045 4.95398 6.7649 4.9072 6.68083 4.88497C6.59675 4.86274 6.50796 4.86607 6.42578 4.89453C6.39941 4.82364 6.35511 4.7608 6.29721 4.71214C6.2393 4.66347 6.16977 4.63065 6.0954 4.61688C6.02103 4.60311 5.94435 4.60885 5.87286 4.63355C5.80137 4.65825 5.73751 4.70107 5.6875 4.75781C5.60547 4.64844 5.49609 4.59375 5.35938 4.59375ZM5.35938 4.8125C5.49609 4.8125 5.57812 4.92188 5.57812 5.03125C5.57812 5.16797 5.49609 5.25 5.35938 5.25C5.25 5.25 5.14062 5.16797 5.14062 5.03125C5.14062 4.92188 5.25 4.8125 5.35938 4.8125ZM6.01562 4.8125C6.15234 4.8125 6.23438 4.92188 6.23438 5.03125C6.23438 5.16797 6.15234 5.25 6.01562 5.25C5.90625 5.25 5.79688 5.16797 5.79688 5.03125C5.79688 4.92188 5.90625 4.8125 6.01562 4.8125ZM4.8125 5.08594L4.92188 5.11328L5.03125 5.33203C5.03125 5.44141 4.92188 5.52344 4.8125 5.52344C4.70312 5.52344 4.59375 5.44141 4.59375 5.30469C4.59375 5.19531 4.70312 5.08594 4.8125 5.08594ZM6.5625 5.08594C6.69922 5.08594 6.78125 5.19531 6.78125 5.30469C6.78125 5.44141 6.69922 5.52344 6.5625 5.52344C6.45312 5.52344 6.34375 5.44141 6.34375 5.33203L6.45312 5.11328L6.5625 5.08594Z" fill="#EEEEEE"/>
<path d="M5.46875 4.375H5.90625V5.25H5.46875V4.375Z" fill="#FF9811"/>
<path d="M5.6875 6.125H7V7.4375H5.6875V6.125Z" fill="#EEEEEE"/>
<path d="M6.78125 5.6875L6.5625 5.90625H4.8125L4.59375 5.6875C4.59375 5.33203 5.08594 5.03125 5.6875 5.03125C6.28906 5.03125 6.78125 5.33203 6.78125 5.6875ZM4.375 6.125H5.6875V7.4375H4.375V6.125Z" fill="#D80027"/>
<path d="M6.61719 6.61719C6.61719 6.46617 6.49477 6.34375 6.34375 6.34375C6.19273 6.34375 6.07031 6.46617 6.07031 6.61719V6.94531C6.07031 7.09633 6.19273 7.21875 6.34375 7.21875C6.49477 7.21875 6.61719 7.09633 6.61719 6.94531V6.61719Z" fill="#D80027"/>
<path d="M4.59375 6.34375V6.5625H4.8125V7H4.59375V7.21875H5.46875V7H5.25V6.5625H5.46875V6.34375H4.59375ZM4.8125 5.90625H6.5625V6.125H4.8125V5.90625Z" fill="#FF9811"/>
<path d="M5.08594 5.6875C5.17655 5.6875 5.25 5.61405 5.25 5.52344C5.25 5.43283 5.17655 5.35938 5.08594 5.35938C4.99533 5.35938 4.92188 5.43283 4.92188 5.52344C4.92188 5.61405 4.99533 5.6875 5.08594 5.6875Z" fill="#FFDA44"/>
<path d="M5.6875 5.6875C5.77811 5.6875 5.85156 5.61405 5.85156 5.52344C5.85156 5.43283 5.77811 5.35938 5.6875 5.35938C5.59689 5.35938 5.52344 5.43283 5.52344 5.52344C5.52344 5.61405 5.59689 5.6875 5.6875 5.6875Z" fill="#FFDA44"/>
<path d="M6.28906 5.6875C6.37967 5.6875 6.45312 5.61405 6.45312 5.52344C6.45312 5.43283 6.37967 5.35938 6.28906 5.35938C6.19845 5.35938 6.125 5.43283 6.125 5.52344C6.125 5.61405 6.19845 5.6875 6.28906 5.6875Z" fill="#FFDA44"/>
<path d="M4.62109 7.4375V8.61328C4.70278 8.66998 4.79628 8.70738 4.89453 8.72266V7.4375H4.62109ZM5.16797 7.4375V8.72266C5.26622 8.70738 5.35972 8.66998 5.44141 8.61328V7.4375H5.16797Z" fill="#D80027"/>
<path d="M5.6875 7.875C5.92912 7.875 6.125 7.67912 6.125 7.4375C6.125 7.19588 5.92912 7 5.6875 7C5.44588 7 5.25 7.19588 5.25 7.4375C5.25 7.67912 5.44588 7.875 5.6875 7.875Z" fill="#338AF3"/>
<path d="M7.875 8.75H7.4375C7.31669 8.75 7.21875 8.84794 7.21875 8.96875C7.21875 9.08956 7.31669 9.1875 7.4375 9.1875H7.875C7.99581 9.1875 8.09375 9.08956 8.09375 8.96875C8.09375 8.84794 7.99581 8.75 7.875 8.75Z" fill="#338AF3"/>
<path d="M3.9375 8.75H3.5C3.37919 8.75 3.28125 8.84794 3.28125 8.96875C3.28125 9.08956 3.37919 9.1875 3.5 9.1875H3.9375C4.05831 9.1875 4.15625 9.08956 4.15625 8.96875C4.15625 8.84794 4.05831 8.75 3.9375 8.75Z" fill="#338AF3"/>
</g>
</svg>
