<svg width="19" height="18" viewBox="0 0 19 18" fill="none" xmlns="http://www.w3.org/2000/svg">
<path d="M10.5029 -0.00145231C9.06405 0.000848182 7.65622 0.41699 6.44736 1.19733C5.23849 1.97768 4.2796 3.08929 3.68507 4.39957C3.09055 5.70985 2.88547 7.1635 3.09431 8.58711C3.30315 10.0107 3.91709 11.3442 4.8629 12.4285L0.147899 17.1435C0.101035 17.19 0.0638379 17.2453 0.0384536 17.3063C0.0130692 17.3672 0 17.4325 0 17.4985C0 17.5646 0.0130692 17.6299 0.0384536 17.6908C0.0638379 17.7518 0.101035 17.8071 0.147899 17.8535C0.194381 17.9004 0.249681 17.9376 0.310611 17.963C0.37154 17.9884 0.436893 18.0014 0.502899 18.0014C0.568905 18.0014 0.634258 17.9884 0.695188 17.963C0.756117 17.9376 0.811418 17.9004 0.857899 17.8535L5.5729 13.1385C6.48517 13.9382 7.5778 14.5046 8.75707 14.7892C9.93634 15.0738 11.167 15.0681 12.3436 14.7726C13.5202 14.4771 14.6075 13.9006 15.5124 13.0925C16.4172 12.2844 17.1125 11.2689 17.5386 10.1331C17.9648 8.99732 18.1091 7.77508 17.9591 6.57127C17.8091 5.36745 17.3693 4.21798 16.6775 3.22146C15.9857 2.22493 15.0625 1.4111 13.987 0.849757C12.9116 0.288418 11.716 -0.00366974 10.5029 -0.00145231ZM10.5029 13.9985C9.21732 13.9985 7.96061 13.6173 6.89169 12.9031C5.82277 12.1889 4.98965 11.1737 4.49768 9.98599C4.00571 8.79827 3.87699 7.49134 4.12779 6.23046C4.3786 4.96958 4.99766 3.81139 5.9067 2.90235C6.81575 1.99331 7.97394 1.37425 9.23481 1.12344C10.4957 0.872639 11.8026 1.00136 12.9903 1.49333C14.1781 1.9853 15.1932 2.81842 15.9075 3.88734C16.6217 4.95626 17.0029 6.21297 17.0029 7.49855C17.0029 9.22246 16.3181 10.8758 15.0991 12.0947C13.8801 13.3137 12.2268 13.9985 10.5029 13.9985Z" fill="#4B545F" fill-opacity="0.5"/>
</svg>
